<svg width="278" height="80" viewBox="0 0 278 80" fill="none" xmlns="http://www.w3.org/2000/svg">
<path d="M242.05 11.23C252.711 16.59 260.025 27.63 260.025 40.39C260.025 53.14 252.711 64.18 242.05 69.54C256.018 67.19 266.649 55.03 266.649 40.39C266.649 25.74 256.018 13.58 242.05 11.23Z" fill="white"/>
<path d="M237.724 75.71C217.862 75.71 201.755 59.59 201.755 39.71C201.755 19.83 217.862 3.71 237.724 3.71C245.158 3.71 252.052 5.96 257.787 9.82C250.813 3.71 241.671 0 231.68 0C209.769 0 192.004 17.78 192.004 39.71C192.004 61.64 209.759 79.42 231.68 79.42C241.681 79.42 250.813 75.71 257.787 69.6C252.062 73.46 245.158 75.71 237.724 75.71Z" fill="#00AEEF"/>
<path d="M24.7786 52.3701H12.0895L9.03219 61.8101C8.70247 62.8701 8.30282 63.2101 7.10386 63.2101H1.32885C0.669421 63.2101 0 63.0101 0 62.2101C0 61.9401 0.0699395 61.7501 0.329715 61.0101L15.6665 17.6001C16.0661 16.4701 16.3958 16.2001 17.5948 16.2001H22.7703C24.0292 16.2001 24.299 16.4701 24.6986 17.6001L39.9055 61.1401C40.0354 61.4701 40.1053 61.7401 40.1053 62.0701C40.1053 63.1301 39.306 63.1301 38.5766 63.2001H29.8142C28.6852 63.2001 28.2855 63.0001 27.8859 61.8001L24.7786 52.3701ZM22.7803 46.1201L18.3341 31.3601L14.0179 46.1201H22.7803Z" fill="white"/>
<path d="M63.4951 25.4501C62.3661 23.7201 60.7075 21.9901 57.9799 21.9901C53.3938 21.9901 50.0068 27.2401 50.0068 36.3501C50.0068 42.6701 51.3356 47.7801 53.8534 51.1101C56.3113 54.4301 59.4286 55.3601 61.8865 55.3601C65.1437 55.3601 67.132 53.8301 68.261 52.9701C69.6598 51.9101 69.9895 51.6401 70.9886 51.6401C72.3175 51.6401 73.6463 52.7001 73.6463 54.5601C73.6463 57.8801 68.9304 64.3301 58.8991 64.3301C43.6922 64.3301 37.7773 51.7701 37.7773 39.4701C37.7773 24.3101 47.0793 15.0701 58.8291 15.0701C68.5907 15.0701 73.976 20.9901 73.976 25.1701C73.976 27.7601 72.0477 29.8201 68.9904 29.8201C66.7323 29.8201 65.6033 28.6201 64.8739 27.5601C64.4942 26.9801 63.8948 26.0501 63.4951 25.4501Z" fill="white"/>
<path d="M95.6374 64.3401C83.6178 64.3401 75.1851 54.7701 75.1851 39.6101C75.1851 25.3201 83.0882 15.0801 95.9071 15.0801C108.127 15.0801 115.63 24.9801 116.16 38.6101C116.829 54.7001 107.597 64.3401 95.6374 64.3401ZM95.7073 22.5901C87.1447 22.5901 87.0748 35.6801 87.0748 38.9401C87.0748 41.5301 87.2746 43.6601 87.4744 45.2501C87.7442 47.3101 88.1339 49.3101 89.0631 51.1701C90.3919 54.0301 92.7199 56.1501 95.8372 56.1501C97.3659 56.1501 98.7547 55.5501 99.7538 54.7501C103.211 52.1601 103.87 46.5101 104 44.8501C104.33 42.4601 104.33 40.3301 104.33 38.6701C104.21 29.1101 101.482 22.5901 95.7073 22.5901Z" fill="white"/>
<path d="M119.816 19C119.816 17.54 120.146 17.01 121.415 16.67C123.403 16.07 129.118 15.67 132.975 15.67C139.35 15.67 152.638 16.4 152.638 30.29C152.638 39.8 145.934 45.18 135.173 45.18C134.174 45.18 133.115 45.11 131.386 45.05V61.6701C131.386 62.8701 130.987 63.2001 129.728 63.2001H121.625C120.426 63.2001 119.836 63 119.836 61.54V19H119.816ZM131.366 38.35C132.166 38.42 132.625 38.48 133.355 38.48C138.6 38.48 140.928 35.62 140.928 30.44C140.928 26.58 139.669 22.4 133.355 22.4C132.555 22.4 131.956 22.47 131.366 22.6V38.35Z" fill="white"/>
<path d="M171.901 52.3701H159.212L156.155 61.8101C155.825 62.8701 155.425 63.2101 154.226 63.2101H148.451C147.792 63.2101 147.123 63.0101 147.123 62.2101C147.123 61.9401 147.192 61.7501 147.452 61.0101L162.799 17.6001C163.199 16.4701 163.528 16.2001 164.727 16.2001H169.903C171.162 16.2001 171.432 16.4701 171.831 17.6001L187.038 61.1401C187.168 61.4701 187.238 61.7401 187.238 62.0701C187.238 63.1301 186.439 63.1301 185.709 63.2001H176.947C175.818 63.2001 175.418 63.0001 175.018 61.8001L171.901 52.3701ZM169.903 46.1201L165.457 31.3601L161.14 46.1201H169.903Z" fill="white"/>
<path d="M271.156 58.97V59.86H269.438V64.34H268.368V59.86H266.67V58.97H271.156ZM276.951 64.34L276.751 61.18C276.731 60.77 276.731 60.25 276.711 59.68H276.651C276.511 60.15 276.332 60.79 276.202 61.28L275.233 64.26H274.133L273.164 61.2C273.064 60.8 272.905 60.15 272.785 59.68H272.725C272.725 60.17 272.705 60.69 272.685 61.18L272.485 64.34H271.456L271.845 58.97H273.444L274.373 61.59C274.513 62 274.593 62.4 274.733 62.95H274.753C274.893 62.48 275.013 62 275.123 61.63L276.052 58.97H277.591L278 64.34H276.951Z" fill="white"/>
</svg>
